<?xml version="1.0" encoding="UTF-8"?>
<svg id="Layer_2" data-name="Layer 2" xmlns="http://www.w3.org/2000/svg" viewBox="0 0 424.16 530.21">
  <defs>
    <style>
      .cls-1 {
        fill: #fff;
      }

      .cls-2 {
        fill: #323232;
        fill-rule: evenodd;
      }
    </style>
  </defs>
  <g id="Layer_1-2" data-name="Layer 1">
    <g>
      <rect class="cls-1" x="71.14" y="53.02" width="281.88" height="149.08"/>
      <path class="cls-2" d="M424.16,130.81v268.59c0,23.5,0,43.75-2.18,59.97-2.34,17.38-7.61,34.04-21.12,47.55-13.51,13.51-30.17,18.78-47.55,21.12-16.22,2.18-36.46,2.18-59.97,2.18h-162.55c-23.5,0-43.75,0-59.97-2.18-17.38-2.34-34.04-7.61-47.55-21.12-13.51-13.51-18.78-30.17-21.12-47.55C0,443.15,0,422.9,0,399.4V130.81c0-23.5,0-43.75,2.18-59.97,2.34-17.38,7.61-34.04,21.12-47.55C36.81,9.78,53.46,4.51,70.84,2.18,87.06,0,107.31,0,130.81,0h160.81C292.2,0,292.78,0,293.36,0c23.5,0,43.75,0,59.97,2.18,17.38,2.34,34.04,7.61,47.55,21.12,13.51,13.51,18.78,30.17,21.12,47.55,2.18,16.22,2.18,36.46,2.18,59.97ZM132.55,53.02c14.64,0,26.51,11.87,26.51,26.51v26.51c0,14.64,11.87,26.51,26.51,26.51h53.02c14.64,0,26.51-11.87,26.51-26.51v-26.51c0-14.64,11.87-26.51,26.51-26.51s26.51,11.87,26.51,26.51v26.51c0,43.92-35.61,79.53-79.53,79.53h-53.02c-43.92,0-79.53-35.61-79.53-79.53v-26.51c0-14.64,11.87-26.51,26.51-26.51Z"/>
      <g>
        <rect class="cls-1" x="71.14" y="249.1" width="281.88" height="28.59" rx="12" ry="12"/>
        <rect class="cls-1" x="71.14" y="297.81" width="228.35" height="28.59" rx="12" ry="12"/>
        <rect class="cls-1" x="71.14" y="346.51" width="197.64" height="28.59" rx="12" ry="12"/>
        <rect class="cls-1" x="71.14" y="395.22" width="281.88" height="28.59" rx="12" ry="12"/>
      </g>
    </g>
  </g>
</svg>